<mxfile host="Electron" modified="2024-03-02T11:45:42.064Z" agent="Mozilla/5.0 (Windows NT 10.0; Win64; x64) AppleWebKit/537.36 (KHTML, like Gecko) draw.io/23.1.5 Chrome/120.0.6099.109 Electron/28.1.0 Safari/537.36" etag="7DlnKsp5Ux8tNt1XyH-v" version="23.1.5" type="device">
  <diagram id="C5RBs43oDa-KdzZeNtuy" name="Page-1">
    <mxGraphModel dx="1793" dy="1055" grid="1" gridSize="10" guides="1" tooltips="1" connect="1" arrows="1" fold="1" page="1" pageScale="1" pageWidth="827" pageHeight="1169" math="0" shadow="0">
      <root>
        <mxCell id="WIyWlLk6GJQsqaUBKTNV-0" />
        <mxCell id="WIyWlLk6GJQsqaUBKTNV-1" parent="WIyWlLk6GJQsqaUBKTNV-0" />
        <mxCell id="LYepQbH3oenBu2mSsEh7-3" style="edgeStyle=orthogonalEdgeStyle;rounded=0;orthogonalLoop=1;jettySize=auto;html=1;exitX=1;exitY=0.5;exitDx=0;exitDy=0;" parent="WIyWlLk6GJQsqaUBKTNV-1" source="LYepQbH3oenBu2mSsEh7-1" target="LYepQbH3oenBu2mSsEh7-2" edge="1">
          <mxGeometry relative="1" as="geometry" />
        </mxCell>
        <mxCell id="LYepQbH3oenBu2mSsEh7-1" value="User" style="rounded=0;whiteSpace=wrap;html=1;" parent="WIyWlLk6GJQsqaUBKTNV-1" vertex="1">
          <mxGeometry x="70" y="80" width="120" height="60" as="geometry" />
        </mxCell>
        <mxCell id="LYepQbH3oenBu2mSsEh7-7" style="edgeStyle=orthogonalEdgeStyle;rounded=0;orthogonalLoop=1;jettySize=auto;html=1;exitX=1;exitY=0.5;exitDx=0;exitDy=0;entryX=0;entryY=0.5;entryDx=0;entryDy=0;" parent="WIyWlLk6GJQsqaUBKTNV-1" source="LYepQbH3oenBu2mSsEh7-2" target="LYepQbH3oenBu2mSsEh7-54" edge="1">
          <mxGeometry relative="1" as="geometry">
            <mxPoint x="450" y="110" as="targetPoint" />
          </mxGeometry>
        </mxCell>
        <mxCell id="LYepQbH3oenBu2mSsEh7-2" value="Press E On egg" style="rounded=0;whiteSpace=wrap;html=1;" parent="WIyWlLk6GJQsqaUBKTNV-1" vertex="1">
          <mxGeometry x="250" y="80" width="120" height="60" as="geometry" />
        </mxCell>
        <mxCell id="LYepQbH3oenBu2mSsEh7-5" value="Server-side" style="swimlane;whiteSpace=wrap;html=1;" parent="WIyWlLk6GJQsqaUBKTNV-1" vertex="1">
          <mxGeometry x="610" y="40" width="456" height="600" as="geometry" />
        </mxCell>
        <mxCell id="LYepQbH3oenBu2mSsEh7-16" style="edgeStyle=orthogonalEdgeStyle;rounded=0;orthogonalLoop=1;jettySize=auto;html=1;exitX=0;exitY=0.5;exitDx=0;exitDy=0;entryX=0.5;entryY=0;entryDx=0;entryDy=0;" parent="LYepQbH3oenBu2mSsEh7-5" source="LYepQbH3oenBu2mSsEh7-6" target="LYepQbH3oenBu2mSsEh7-8" edge="1">
          <mxGeometry relative="1" as="geometry" />
        </mxCell>
        <mxCell id="LYepQbH3oenBu2mSsEh7-19" style="edgeStyle=orthogonalEdgeStyle;rounded=0;orthogonalLoop=1;jettySize=auto;html=1;exitX=1;exitY=0.5;exitDx=0;exitDy=0;entryX=0.5;entryY=0;entryDx=0;entryDy=0;" parent="LYepQbH3oenBu2mSsEh7-5" source="LYepQbH3oenBu2mSsEh7-6" target="LYepQbH3oenBu2mSsEh7-18" edge="1">
          <mxGeometry relative="1" as="geometry" />
        </mxCell>
        <mxCell id="LYepQbH3oenBu2mSsEh7-6" value="Send event to the server" style="rounded=0;whiteSpace=wrap;html=1;" parent="LYepQbH3oenBu2mSsEh7-5" vertex="1">
          <mxGeometry x="168" y="40" width="120" height="60" as="geometry" />
        </mxCell>
        <mxCell id="LYepQbH3oenBu2mSsEh7-11" style="edgeStyle=orthogonalEdgeStyle;rounded=0;orthogonalLoop=1;jettySize=auto;html=1;exitX=0.25;exitY=1;exitDx=0;exitDy=0;entryX=0.5;entryY=0;entryDx=0;entryDy=0;" parent="LYepQbH3oenBu2mSsEh7-5" source="LYepQbH3oenBu2mSsEh7-8" target="LYepQbH3oenBu2mSsEh7-10" edge="1">
          <mxGeometry relative="1" as="geometry" />
        </mxCell>
        <mxCell id="LYepQbH3oenBu2mSsEh7-8" value="Can buy?" style="rounded=0;whiteSpace=wrap;html=1;" parent="LYepQbH3oenBu2mSsEh7-5" vertex="1">
          <mxGeometry x="30" y="130" width="120" height="60" as="geometry" />
        </mxCell>
        <mxCell id="LYepQbH3oenBu2mSsEh7-14" style="edgeStyle=orthogonalEdgeStyle;rounded=0;orthogonalLoop=1;jettySize=auto;html=1;exitX=0.5;exitY=1;exitDx=0;exitDy=0;entryX=0.5;entryY=0;entryDx=0;entryDy=0;" parent="LYepQbH3oenBu2mSsEh7-5" source="LYepQbH3oenBu2mSsEh7-10" target="LYepQbH3oenBu2mSsEh7-13" edge="1">
          <mxGeometry relative="1" as="geometry" />
        </mxCell>
        <mxCell id="LYepQbH3oenBu2mSsEh7-10" value="No" style="rounded=0;whiteSpace=wrap;html=1;" parent="LYepQbH3oenBu2mSsEh7-5" vertex="1">
          <mxGeometry x="10" y="210" width="60" height="30" as="geometry" />
        </mxCell>
        <mxCell id="LYepQbH3oenBu2mSsEh7-12" style="edgeStyle=orthogonalEdgeStyle;rounded=0;orthogonalLoop=1;jettySize=auto;html=1;exitX=0.75;exitY=1;exitDx=0;exitDy=0;entryX=0.5;entryY=0;entryDx=0;entryDy=0;" parent="LYepQbH3oenBu2mSsEh7-5" source="LYepQbH3oenBu2mSsEh7-8" target="LYepQbH3oenBu2mSsEh7-29" edge="1">
          <mxGeometry relative="1" as="geometry">
            <mxPoint x="132" y="207" as="targetPoint" />
          </mxGeometry>
        </mxCell>
        <mxCell id="LYepQbH3oenBu2mSsEh7-13" value="Return error" style="rounded=0;whiteSpace=wrap;html=1;" parent="LYepQbH3oenBu2mSsEh7-5" vertex="1">
          <mxGeometry x="10" y="260" width="60" height="30" as="geometry" />
        </mxCell>
        <mxCell id="LYepQbH3oenBu2mSsEh7-23" style="edgeStyle=orthogonalEdgeStyle;rounded=0;orthogonalLoop=1;jettySize=auto;html=1;exitX=0.25;exitY=1;exitDx=0;exitDy=0;entryX=0.5;entryY=0;entryDx=0;entryDy=0;" parent="LYepQbH3oenBu2mSsEh7-5" source="LYepQbH3oenBu2mSsEh7-18" target="LYepQbH3oenBu2mSsEh7-20" edge="1">
          <mxGeometry relative="1" as="geometry" />
        </mxCell>
        <mxCell id="LYepQbH3oenBu2mSsEh7-24" style="edgeStyle=orthogonalEdgeStyle;rounded=0;orthogonalLoop=1;jettySize=auto;html=1;exitX=0.75;exitY=1;exitDx=0;exitDy=0;entryX=0.5;entryY=0;entryDx=0;entryDy=0;" parent="LYepQbH3oenBu2mSsEh7-5" source="LYepQbH3oenBu2mSsEh7-18" target="LYepQbH3oenBu2mSsEh7-21" edge="1">
          <mxGeometry relative="1" as="geometry" />
        </mxCell>
        <mxCell id="LYepQbH3oenBu2mSsEh7-18" value="Has Storage?" style="rounded=0;whiteSpace=wrap;html=1;" parent="LYepQbH3oenBu2mSsEh7-5" vertex="1">
          <mxGeometry x="288" y="130" width="120" height="60" as="geometry" />
        </mxCell>
        <mxCell id="LYepQbH3oenBu2mSsEh7-27" style="edgeStyle=orthogonalEdgeStyle;rounded=0;orthogonalLoop=1;jettySize=auto;html=1;entryX=1;entryY=0.5;entryDx=0;entryDy=0;exitX=0.5;exitY=1;exitDx=0;exitDy=0;" parent="LYepQbH3oenBu2mSsEh7-5" source="LYepQbH3oenBu2mSsEh7-20" target="LYepQbH3oenBu2mSsEh7-13" edge="1">
          <mxGeometry relative="1" as="geometry">
            <mxPoint x="270" y="260" as="sourcePoint" />
          </mxGeometry>
        </mxCell>
        <mxCell id="LYepQbH3oenBu2mSsEh7-20" value="No" style="rounded=0;whiteSpace=wrap;html=1;" parent="LYepQbH3oenBu2mSsEh7-5" vertex="1">
          <mxGeometry x="269" y="220" width="60" height="30" as="geometry" />
        </mxCell>
        <mxCell id="LYepQbH3oenBu2mSsEh7-33" style="edgeStyle=orthogonalEdgeStyle;rounded=0;orthogonalLoop=1;jettySize=auto;html=1;exitX=0.5;exitY=1;exitDx=0;exitDy=0;entryX=1;entryY=0.5;entryDx=0;entryDy=0;shape=link;" parent="LYepQbH3oenBu2mSsEh7-5" source="LYepQbH3oenBu2mSsEh7-21" target="LYepQbH3oenBu2mSsEh7-40" edge="1">
          <mxGeometry relative="1" as="geometry" />
        </mxCell>
        <mxCell id="LYepQbH3oenBu2mSsEh7-21" value="Yes" style="rounded=0;whiteSpace=wrap;html=1;" parent="LYepQbH3oenBu2mSsEh7-5" vertex="1">
          <mxGeometry x="367" y="220" width="60" height="30" as="geometry" />
        </mxCell>
        <mxCell id="LYepQbH3oenBu2mSsEh7-32" style="edgeStyle=orthogonalEdgeStyle;rounded=0;orthogonalLoop=1;jettySize=auto;html=1;exitX=0.5;exitY=1;exitDx=0;exitDy=0;entryX=0;entryY=0.5;entryDx=0;entryDy=0;shape=link;" parent="LYepQbH3oenBu2mSsEh7-5" source="LYepQbH3oenBu2mSsEh7-29" target="LYepQbH3oenBu2mSsEh7-40" edge="1">
          <mxGeometry relative="1" as="geometry" />
        </mxCell>
        <mxCell id="LYepQbH3oenBu2mSsEh7-29" value="Yes" style="rounded=0;whiteSpace=wrap;html=1;" parent="LYepQbH3oenBu2mSsEh7-5" vertex="1">
          <mxGeometry x="108" y="210" width="60" height="30" as="geometry" />
        </mxCell>
        <mxCell id="LYepQbH3oenBu2mSsEh7-36" style="edgeStyle=orthogonalEdgeStyle;rounded=0;orthogonalLoop=1;jettySize=auto;html=1;exitX=0.5;exitY=1;exitDx=0;exitDy=0;entryX=0.5;entryY=0;entryDx=0;entryDy=0;" parent="LYepQbH3oenBu2mSsEh7-5" source="LYepQbH3oenBu2mSsEh7-31" target="LYepQbH3oenBu2mSsEh7-35" edge="1">
          <mxGeometry relative="1" as="geometry" />
        </mxCell>
        <mxCell id="LYepQbH3oenBu2mSsEh7-31" value="Calculate rarity" style="rounded=0;whiteSpace=wrap;html=1;" parent="LYepQbH3oenBu2mSsEh7-5" vertex="1">
          <mxGeometry x="230" y="390" width="120" height="60" as="geometry" />
        </mxCell>
        <mxCell id="LYepQbH3oenBu2mSsEh7-46" style="edgeStyle=orthogonalEdgeStyle;rounded=0;orthogonalLoop=1;jettySize=auto;html=1;exitX=0;exitY=0.5;exitDx=0;exitDy=0;entryX=1;entryY=0.5;entryDx=0;entryDy=0;" parent="LYepQbH3oenBu2mSsEh7-5" source="LYepQbH3oenBu2mSsEh7-35" target="LYepQbH3oenBu2mSsEh7-45" edge="1">
          <mxGeometry relative="1" as="geometry" />
        </mxCell>
        <mxCell id="LYepQbH3oenBu2mSsEh7-35" value="Find which pet to give" style="rounded=0;whiteSpace=wrap;html=1;" parent="LYepQbH3oenBu2mSsEh7-5" vertex="1">
          <mxGeometry x="230" y="470" width="120" height="60" as="geometry" />
        </mxCell>
        <mxCell id="LYepQbH3oenBu2mSsEh7-41" style="edgeStyle=orthogonalEdgeStyle;rounded=0;orthogonalLoop=1;jettySize=auto;html=1;exitX=0.5;exitY=1;exitDx=0;exitDy=0;entryX=0.5;entryY=0;entryDx=0;entryDy=0;" parent="LYepQbH3oenBu2mSsEh7-5" source="LYepQbH3oenBu2mSsEh7-40" target="LYepQbH3oenBu2mSsEh7-31" edge="1">
          <mxGeometry relative="1" as="geometry" />
        </mxCell>
        <mxCell id="LYepQbH3oenBu2mSsEh7-43" style="edgeStyle=orthogonalEdgeStyle;rounded=0;orthogonalLoop=1;jettySize=auto;html=1;exitX=0;exitY=0.75;exitDx=0;exitDy=0;entryX=0.5;entryY=0;entryDx=0;entryDy=0;" parent="LYepQbH3oenBu2mSsEh7-5" source="LYepQbH3oenBu2mSsEh7-40" target="LYepQbH3oenBu2mSsEh7-42" edge="1">
          <mxGeometry relative="1" as="geometry" />
        </mxCell>
        <mxCell id="LYepQbH3oenBu2mSsEh7-40" value="Charge coins" style="rounded=0;whiteSpace=wrap;html=1;" parent="LYepQbH3oenBu2mSsEh7-5" vertex="1">
          <mxGeometry x="230" y="310" width="120" height="60" as="geometry" />
        </mxCell>
        <mxCell id="LYepQbH3oenBu2mSsEh7-42" value="Send animation to play in the client" style="rounded=0;whiteSpace=wrap;html=1;" parent="LYepQbH3oenBu2mSsEh7-5" vertex="1">
          <mxGeometry x="90" y="390" width="120" height="60" as="geometry" />
        </mxCell>
        <mxCell id="LYepQbH3oenBu2mSsEh7-45" value="Give pet to user&#39;s backpack" style="rounded=0;whiteSpace=wrap;html=1;" parent="LYepQbH3oenBu2mSsEh7-5" vertex="1">
          <mxGeometry x="90" y="470" width="120" height="60" as="geometry" />
        </mxCell>
        <mxCell id="LYepQbH3oenBu2mSsEh7-15" style="edgeStyle=orthogonalEdgeStyle;rounded=0;orthogonalLoop=1;jettySize=auto;html=1;exitX=0;exitY=0.25;exitDx=0;exitDy=0;entryX=0.5;entryY=1;entryDx=0;entryDy=0;" parent="WIyWlLk6GJQsqaUBKTNV-1" source="LYepQbH3oenBu2mSsEh7-13" target="LYepQbH3oenBu2mSsEh7-54" edge="1">
          <mxGeometry relative="1" as="geometry" />
        </mxCell>
        <mxCell id="LYepQbH3oenBu2mSsEh7-44" style="edgeStyle=orthogonalEdgeStyle;rounded=0;orthogonalLoop=1;jettySize=auto;html=1;exitX=0;exitY=0.5;exitDx=0;exitDy=0;entryX=1;entryY=0.5;entryDx=0;entryDy=0;" parent="WIyWlLk6GJQsqaUBKTNV-1" source="LYepQbH3oenBu2mSsEh7-42" target="LYepQbH3oenBu2mSsEh7-47" edge="1">
          <mxGeometry relative="1" as="geometry">
            <mxPoint x="100" y="360" as="targetPoint" />
          </mxGeometry>
        </mxCell>
        <mxCell id="LYepQbH3oenBu2mSsEh7-115" style="edgeStyle=orthogonalEdgeStyle;rounded=0;orthogonalLoop=1;jettySize=auto;html=1;exitX=0.5;exitY=0;exitDx=0;exitDy=0;entryX=0.5;entryY=1;entryDx=0;entryDy=0;" parent="WIyWlLk6GJQsqaUBKTNV-1" source="LYepQbH3oenBu2mSsEh7-47" target="LYepQbH3oenBu2mSsEh7-1" edge="1">
          <mxGeometry relative="1" as="geometry" />
        </mxCell>
        <mxCell id="LYepQbH3oenBu2mSsEh7-47" value="Animation" style="swimlane;whiteSpace=wrap;html=1;" parent="WIyWlLk6GJQsqaUBKTNV-1" vertex="1">
          <mxGeometry x="140" y="307.5" width="300" height="305" as="geometry" />
        </mxCell>
        <mxCell id="LYepQbH3oenBu2mSsEh7-51" style="edgeStyle=orthogonalEdgeStyle;rounded=0;orthogonalLoop=1;jettySize=auto;html=1;exitX=0.5;exitY=1;exitDx=0;exitDy=0;entryX=0.5;entryY=0;entryDx=0;entryDy=0;" parent="LYepQbH3oenBu2mSsEh7-47" source="LYepQbH3oenBu2mSsEh7-48" target="LYepQbH3oenBu2mSsEh7-50" edge="1">
          <mxGeometry relative="1" as="geometry" />
        </mxCell>
        <mxCell id="LYepQbH3oenBu2mSsEh7-48" value="Move user&#39;s camera in front of the egg" style="rounded=0;whiteSpace=wrap;html=1;" parent="LYepQbH3oenBu2mSsEh7-47" vertex="1">
          <mxGeometry x="70" y="45" width="120" height="60" as="geometry" />
        </mxCell>
        <mxCell id="LYepQbH3oenBu2mSsEh7-53" style="edgeStyle=orthogonalEdgeStyle;rounded=0;orthogonalLoop=1;jettySize=auto;html=1;exitX=0.5;exitY=1;exitDx=0;exitDy=0;entryX=0.5;entryY=0;entryDx=0;entryDy=0;" parent="LYepQbH3oenBu2mSsEh7-47" source="LYepQbH3oenBu2mSsEh7-50" target="LYepQbH3oenBu2mSsEh7-52" edge="1">
          <mxGeometry relative="1" as="geometry" />
        </mxCell>
        <mxCell id="LYepQbH3oenBu2mSsEh7-50" value="Play hatching animation" style="rounded=0;whiteSpace=wrap;html=1;" parent="LYepQbH3oenBu2mSsEh7-47" vertex="1">
          <mxGeometry x="70" y="125" width="120" height="60" as="geometry" />
        </mxCell>
        <mxCell id="LYepQbH3oenBu2mSsEh7-52" value="Show pet that came out of the egg" style="rounded=0;whiteSpace=wrap;html=1;" parent="LYepQbH3oenBu2mSsEh7-47" vertex="1">
          <mxGeometry x="70" y="215" width="120" height="60" as="geometry" />
        </mxCell>
        <mxCell id="LYepQbH3oenBu2mSsEh7-54" value="Remote Function" style="rounded=0;whiteSpace=wrap;html=1;" parent="WIyWlLk6GJQsqaUBKTNV-1" vertex="1">
          <mxGeometry x="430" y="80" width="120" height="60" as="geometry" />
        </mxCell>
        <mxCell id="LYepQbH3oenBu2mSsEh7-56" style="edgeStyle=orthogonalEdgeStyle;rounded=0;orthogonalLoop=1;jettySize=auto;html=1;exitX=1;exitY=0.5;exitDx=0;exitDy=0;" parent="WIyWlLk6GJQsqaUBKTNV-1" source="LYepQbH3oenBu2mSsEh7-54" edge="1">
          <mxGeometry relative="1" as="geometry">
            <mxPoint x="610" y="110" as="targetPoint" />
          </mxGeometry>
        </mxCell>
        <mxCell id="LYepQbH3oenBu2mSsEh7-88" style="edgeStyle=orthogonalEdgeStyle;rounded=0;orthogonalLoop=1;jettySize=auto;html=1;exitX=0;exitY=0.5;exitDx=0;exitDy=0;entryX=0.5;entryY=0;entryDx=0;entryDy=0;" parent="WIyWlLk6GJQsqaUBKTNV-1" source="LYepQbH3oenBu2mSsEh7-57" target="LYepQbH3oenBu2mSsEh7-86" edge="1">
          <mxGeometry relative="1" as="geometry" />
        </mxCell>
        <mxCell id="LYepQbH3oenBu2mSsEh7-89" style="edgeStyle=orthogonalEdgeStyle;rounded=0;orthogonalLoop=1;jettySize=auto;html=1;exitX=1;exitY=0.5;exitDx=0;exitDy=0;entryX=0.5;entryY=0;entryDx=0;entryDy=0;" parent="WIyWlLk6GJQsqaUBKTNV-1" source="LYepQbH3oenBu2mSsEh7-57" target="LYepQbH3oenBu2mSsEh7-87" edge="1">
          <mxGeometry relative="1" as="geometry" />
        </mxCell>
        <mxCell id="LYepQbH3oenBu2mSsEh7-57" value="Backpack" style="rounded=0;whiteSpace=wrap;html=1;" parent="WIyWlLk6GJQsqaUBKTNV-1" vertex="1">
          <mxGeometry x="1880" y="20" width="120" height="60" as="geometry" />
        </mxCell>
        <mxCell id="LYepQbH3oenBu2mSsEh7-86" value="Server-side" style="swimlane;whiteSpace=wrap;html=1;startSize=30;" parent="WIyWlLk6GJQsqaUBKTNV-1" vertex="1">
          <mxGeometry x="1330" y="110" width="540" height="490" as="geometry" />
        </mxCell>
        <mxCell id="LYepQbH3oenBu2mSsEh7-95" style="edgeStyle=orthogonalEdgeStyle;rounded=0;orthogonalLoop=1;jettySize=auto;html=1;exitX=0;exitY=0.5;exitDx=0;exitDy=0;entryX=0.5;entryY=0;entryDx=0;entryDy=0;" parent="LYepQbH3oenBu2mSsEh7-86" source="LYepQbH3oenBu2mSsEh7-90" target="LYepQbH3oenBu2mSsEh7-93" edge="1">
          <mxGeometry relative="1" as="geometry" />
        </mxCell>
        <mxCell id="LYepQbH3oenBu2mSsEh7-97" style="edgeStyle=orthogonalEdgeStyle;rounded=0;orthogonalLoop=1;jettySize=auto;html=1;exitX=1;exitY=0.5;exitDx=0;exitDy=0;entryX=0.5;entryY=0;entryDx=0;entryDy=0;" parent="LYepQbH3oenBu2mSsEh7-86" source="LYepQbH3oenBu2mSsEh7-90" target="LYepQbH3oenBu2mSsEh7-96" edge="1">
          <mxGeometry relative="1" as="geometry" />
        </mxCell>
        <mxCell id="LYepQbH3oenBu2mSsEh7-121" style="edgeStyle=orthogonalEdgeStyle;rounded=0;orthogonalLoop=1;jettySize=auto;html=1;exitX=1;exitY=0.5;exitDx=0;exitDy=0;" parent="LYepQbH3oenBu2mSsEh7-86" source="LYepQbH3oenBu2mSsEh7-90" target="LYepQbH3oenBu2mSsEh7-122" edge="1">
          <mxGeometry relative="1" as="geometry">
            <mxPoint x="440" y="79.8947368421052" as="targetPoint" />
          </mxGeometry>
        </mxCell>
        <mxCell id="LYepQbH3oenBu2mSsEh7-90" value="PlayerModule that holds all the data" style="rounded=0;whiteSpace=wrap;html=1;" parent="LYepQbH3oenBu2mSsEh7-86" vertex="1">
          <mxGeometry x="130" y="50" width="120" height="60" as="geometry" />
        </mxCell>
        <mxCell id="LYepQbH3oenBu2mSsEh7-103" style="edgeStyle=orthogonalEdgeStyle;rounded=0;orthogonalLoop=1;jettySize=auto;html=1;exitX=0.5;exitY=1;exitDx=0;exitDy=0;entryX=0.5;entryY=0;entryDx=0;entryDy=0;" parent="LYepQbH3oenBu2mSsEh7-86" source="LYepQbH3oenBu2mSsEh7-93" target="LYepQbH3oenBu2mSsEh7-98" edge="1">
          <mxGeometry relative="1" as="geometry" />
        </mxCell>
        <mxCell id="LYepQbH3oenBu2mSsEh7-93" value="Backpack:Add" style="whiteSpace=wrap;html=1;rounded=0;" parent="LYepQbH3oenBu2mSsEh7-86" vertex="1">
          <mxGeometry x="29" y="140" width="120" height="60" as="geometry" />
        </mxCell>
        <mxCell id="LYepQbH3oenBu2mSsEh7-110" value="" style="edgeStyle=orthogonalEdgeStyle;rounded=0;orthogonalLoop=1;jettySize=auto;html=1;" parent="LYepQbH3oenBu2mSsEh7-86" source="LYepQbH3oenBu2mSsEh7-96" target="LYepQbH3oenBu2mSsEh7-109" edge="1">
          <mxGeometry relative="1" as="geometry" />
        </mxCell>
        <mxCell id="LYepQbH3oenBu2mSsEh7-96" value="Backpack:Remove" style="whiteSpace=wrap;html=1;rounded=0;" parent="LYepQbH3oenBu2mSsEh7-86" vertex="1">
          <mxGeometry x="230" y="140" width="120" height="60" as="geometry" />
        </mxCell>
        <mxCell id="LYepQbH3oenBu2mSsEh7-98" value="Has Storage?" style="rounded=0;whiteSpace=wrap;html=1;" parent="LYepQbH3oenBu2mSsEh7-86" vertex="1">
          <mxGeometry x="29" y="230" width="120" height="60" as="geometry" />
        </mxCell>
        <mxCell id="LYepQbH3oenBu2mSsEh7-104" style="edgeStyle=orthogonalEdgeStyle;rounded=0;orthogonalLoop=1;jettySize=auto;html=1;exitX=0.5;exitY=1;exitDx=0;exitDy=0;entryX=0.5;entryY=0;entryDx=0;entryDy=0;" parent="LYepQbH3oenBu2mSsEh7-86" source="LYepQbH3oenBu2mSsEh7-99" target="LYepQbH3oenBu2mSsEh7-105" edge="1">
          <mxGeometry relative="1" as="geometry">
            <mxPoint x="40" y="380" as="targetPoint" />
          </mxGeometry>
        </mxCell>
        <mxCell id="LYepQbH3oenBu2mSsEh7-99" value="No" style="rounded=0;whiteSpace=wrap;html=1;" parent="LYepQbH3oenBu2mSsEh7-86" vertex="1">
          <mxGeometry x="10" y="320" width="60" height="30" as="geometry" />
        </mxCell>
        <mxCell id="LYepQbH3oenBu2mSsEh7-107" value="" style="edgeStyle=orthogonalEdgeStyle;rounded=0;orthogonalLoop=1;jettySize=auto;html=1;" parent="LYepQbH3oenBu2mSsEh7-86" source="LYepQbH3oenBu2mSsEh7-100" target="LYepQbH3oenBu2mSsEh7-106" edge="1">
          <mxGeometry relative="1" as="geometry" />
        </mxCell>
        <mxCell id="LYepQbH3oenBu2mSsEh7-100" value="Yes" style="rounded=0;whiteSpace=wrap;html=1;" parent="LYepQbH3oenBu2mSsEh7-86" vertex="1">
          <mxGeometry x="108" y="320" width="60" height="30" as="geometry" />
        </mxCell>
        <mxCell id="LYepQbH3oenBu2mSsEh7-101" style="edgeStyle=orthogonalEdgeStyle;rounded=0;orthogonalLoop=1;jettySize=auto;html=1;exitX=0.75;exitY=1;exitDx=0;exitDy=0;entryX=0.5;entryY=0;entryDx=0;entryDy=0;" parent="LYepQbH3oenBu2mSsEh7-86" source="LYepQbH3oenBu2mSsEh7-98" target="LYepQbH3oenBu2mSsEh7-100" edge="1">
          <mxGeometry relative="1" as="geometry" />
        </mxCell>
        <mxCell id="LYepQbH3oenBu2mSsEh7-102" style="edgeStyle=orthogonalEdgeStyle;rounded=0;orthogonalLoop=1;jettySize=auto;html=1;exitX=0.25;exitY=1;exitDx=0;exitDy=0;entryX=0.5;entryY=0;entryDx=0;entryDy=0;" parent="LYepQbH3oenBu2mSsEh7-86" source="LYepQbH3oenBu2mSsEh7-98" target="LYepQbH3oenBu2mSsEh7-99" edge="1">
          <mxGeometry relative="1" as="geometry" />
        </mxCell>
        <mxCell id="LYepQbH3oenBu2mSsEh7-105" value="Return error" style="rounded=0;whiteSpace=wrap;html=1;" parent="LYepQbH3oenBu2mSsEh7-86" vertex="1">
          <mxGeometry x="10" y="380" width="80" height="40" as="geometry" />
        </mxCell>
        <mxCell id="LYepQbH3oenBu2mSsEh7-113" style="edgeStyle=orthogonalEdgeStyle;rounded=0;orthogonalLoop=1;jettySize=auto;html=1;exitX=1;exitY=0.5;exitDx=0;exitDy=0;entryX=0;entryY=0.5;entryDx=0;entryDy=0;" parent="LYepQbH3oenBu2mSsEh7-86" source="LYepQbH3oenBu2mSsEh7-106" target="LYepQbH3oenBu2mSsEh7-111" edge="1">
          <mxGeometry relative="1" as="geometry" />
        </mxCell>
        <mxCell id="LYepQbH3oenBu2mSsEh7-106" value="Update data" style="rounded=0;whiteSpace=wrap;html=1;" parent="LYepQbH3oenBu2mSsEh7-86" vertex="1">
          <mxGeometry x="99" y="381" width="78" height="39" as="geometry" />
        </mxCell>
        <mxCell id="LYepQbH3oenBu2mSsEh7-112" value="" style="edgeStyle=orthogonalEdgeStyle;rounded=0;orthogonalLoop=1;jettySize=auto;html=1;" parent="LYepQbH3oenBu2mSsEh7-86" source="LYepQbH3oenBu2mSsEh7-109" target="LYepQbH3oenBu2mSsEh7-111" edge="1">
          <mxGeometry relative="1" as="geometry" />
        </mxCell>
        <mxCell id="LYepQbH3oenBu2mSsEh7-109" value="Removes pet from data" style="whiteSpace=wrap;html=1;rounded=0;" parent="LYepQbH3oenBu2mSsEh7-86" vertex="1">
          <mxGeometry x="230" y="240" width="120" height="60" as="geometry" />
        </mxCell>
        <mxCell id="LYepQbH3oenBu2mSsEh7-142" value="" style="edgeStyle=orthogonalEdgeStyle;rounded=0;orthogonalLoop=1;jettySize=auto;html=1;" parent="LYepQbH3oenBu2mSsEh7-86" source="LYepQbH3oenBu2mSsEh7-111" target="LYepQbH3oenBu2mSsEh7-141" edge="1">
          <mxGeometry relative="1" as="geometry" />
        </mxCell>
        <mxCell id="LYepQbH3oenBu2mSsEh7-111" value="Update Client" style="rounded=0;whiteSpace=wrap;html=1;" parent="LYepQbH3oenBu2mSsEh7-86" vertex="1">
          <mxGeometry x="230" y="370.5" width="120" height="60" as="geometry" />
        </mxCell>
        <mxCell id="LYepQbH3oenBu2mSsEh7-125" value="" style="edgeStyle=orthogonalEdgeStyle;rounded=0;orthogonalLoop=1;jettySize=auto;html=1;" parent="LYepQbH3oenBu2mSsEh7-86" source="LYepQbH3oenBu2mSsEh7-122" target="LYepQbH3oenBu2mSsEh7-124" edge="1">
          <mxGeometry relative="1" as="geometry" />
        </mxCell>
        <mxCell id="LYepQbH3oenBu2mSsEh7-122" value="Backpack:Update" style="whiteSpace=wrap;html=1;rounded=0;" parent="LYepQbH3oenBu2mSsEh7-86" vertex="1">
          <mxGeometry x="380" y="140" width="120" height="60" as="geometry" />
        </mxCell>
        <mxCell id="LYepQbH3oenBu2mSsEh7-124" value="Send info to client" style="whiteSpace=wrap;html=1;rounded=0;" parent="LYepQbH3oenBu2mSsEh7-86" vertex="1">
          <mxGeometry x="380" y="240" width="120" height="60" as="geometry" />
        </mxCell>
        <mxCell id="LYepQbH3oenBu2mSsEh7-141" value="Bindable Event" style="rhombus;whiteSpace=wrap;html=1;rounded=0;" parent="LYepQbH3oenBu2mSsEh7-86" vertex="1">
          <mxGeometry x="420" y="360" width="80" height="80" as="geometry" />
        </mxCell>
        <mxCell id="LYepQbH3oenBu2mSsEh7-87" value="Clien-side" style="swimlane;whiteSpace=wrap;html=1;startSize=30;" parent="WIyWlLk6GJQsqaUBKTNV-1" vertex="1">
          <mxGeometry x="2020" y="90" width="445" height="490" as="geometry" />
        </mxCell>
        <mxCell id="LYepQbH3oenBu2mSsEh7-120" value="" style="edgeStyle=orthogonalEdgeStyle;rounded=0;orthogonalLoop=1;jettySize=auto;html=1;" parent="LYepQbH3oenBu2mSsEh7-87" source="LYepQbH3oenBu2mSsEh7-116" target="LYepQbH3oenBu2mSsEh7-119" edge="1">
          <mxGeometry relative="1" as="geometry" />
        </mxCell>
        <mxCell id="LYepQbH3oenBu2mSsEh7-116" value="Open Backpack Gui" style="rounded=0;whiteSpace=wrap;html=1;" parent="LYepQbH3oenBu2mSsEh7-87" vertex="1">
          <mxGeometry x="125" y="50" width="120" height="60" as="geometry" />
        </mxCell>
        <mxCell id="LYepQbH3oenBu2mSsEh7-144" style="edgeStyle=orthogonalEdgeStyle;rounded=0;orthogonalLoop=1;jettySize=auto;html=1;exitX=0.5;exitY=1;exitDx=0;exitDy=0;entryX=0.5;entryY=0;entryDx=0;entryDy=0;" parent="LYepQbH3oenBu2mSsEh7-87" source="LYepQbH3oenBu2mSsEh7-119" target="LYepQbH3oenBu2mSsEh7-128" edge="1">
          <mxGeometry relative="1" as="geometry" />
        </mxCell>
        <mxCell id="LYepQbH3oenBu2mSsEh7-119" value="Fetch data from server" style="rounded=0;whiteSpace=wrap;html=1;" parent="LYepQbH3oenBu2mSsEh7-87" vertex="1">
          <mxGeometry x="125" y="140" width="120" height="60" as="geometry" />
        </mxCell>
        <mxCell id="LYepQbH3oenBu2mSsEh7-131" value="" style="edgeStyle=orthogonalEdgeStyle;rounded=0;orthogonalLoop=1;jettySize=auto;html=1;" parent="LYepQbH3oenBu2mSsEh7-87" source="LYepQbH3oenBu2mSsEh7-128" target="LYepQbH3oenBu2mSsEh7-130" edge="1">
          <mxGeometry relative="1" as="geometry" />
        </mxCell>
        <mxCell id="LYepQbH3oenBu2mSsEh7-128" value="Get data" style="whiteSpace=wrap;html=1;rounded=0;" parent="LYepQbH3oenBu2mSsEh7-87" vertex="1">
          <mxGeometry x="125" y="260" width="120" height="60" as="geometry" />
        </mxCell>
        <mxCell id="LYepQbH3oenBu2mSsEh7-130" value="Load Information" style="whiteSpace=wrap;html=1;rounded=0;" parent="LYepQbH3oenBu2mSsEh7-87" vertex="1">
          <mxGeometry x="300" y="260" width="120" height="60" as="geometry" />
        </mxCell>
        <mxCell id="LYepQbH3oenBu2mSsEh7-114" style="edgeStyle=orthogonalEdgeStyle;rounded=0;orthogonalLoop=1;jettySize=auto;html=1;exitX=0.5;exitY=1;exitDx=0;exitDy=0;entryX=0.5;entryY=1;entryDx=0;entryDy=0;" parent="WIyWlLk6GJQsqaUBKTNV-1" source="LYepQbH3oenBu2mSsEh7-45" target="LYepQbH3oenBu2mSsEh7-111" edge="1">
          <mxGeometry relative="1" as="geometry" />
        </mxCell>
        <mxCell id="LYepQbH3oenBu2mSsEh7-127" style="edgeStyle=orthogonalEdgeStyle;rounded=0;orthogonalLoop=1;jettySize=auto;html=1;exitX=1;exitY=0.5;exitDx=0;exitDy=0;entryX=0;entryY=0.5;entryDx=0;entryDy=0;" parent="WIyWlLk6GJQsqaUBKTNV-1" source="LYepQbH3oenBu2mSsEh7-124" target="LYepQbH3oenBu2mSsEh7-128" edge="1">
          <mxGeometry relative="1" as="geometry">
            <mxPoint x="2110" y="380.42105263157896" as="targetPoint" />
          </mxGeometry>
        </mxCell>
        <mxCell id="LYepQbH3oenBu2mSsEh7-143" style="edgeStyle=orthogonalEdgeStyle;rounded=0;orthogonalLoop=1;jettySize=auto;html=1;exitX=1;exitY=0.5;exitDx=0;exitDy=0;entryX=0.5;entryY=1;entryDx=0;entryDy=0;" parent="WIyWlLk6GJQsqaUBKTNV-1" source="LYepQbH3oenBu2mSsEh7-141" target="LYepQbH3oenBu2mSsEh7-128" edge="1">
          <mxGeometry relative="1" as="geometry" />
        </mxCell>
        <mxCell id="9Z_NA9bLC8QeLtHIolMp-3" style="edgeStyle=orthogonalEdgeStyle;rounded=0;orthogonalLoop=1;jettySize=auto;html=1;exitX=1;exitY=0;exitDx=0;exitDy=0;entryX=0;entryY=0;entryDx=0;entryDy=0;" edge="1" parent="WIyWlLk6GJQsqaUBKTNV-1" source="LYepQbH3oenBu2mSsEh7-18" target="LYepQbH3oenBu2mSsEh7-98">
          <mxGeometry relative="1" as="geometry">
            <Array as="points">
              <mxPoint x="1359" y="170" />
            </Array>
          </mxGeometry>
        </mxCell>
        <mxCell id="9Z_NA9bLC8QeLtHIolMp-4" style="edgeStyle=orthogonalEdgeStyle;rounded=0;orthogonalLoop=1;jettySize=auto;html=1;exitX=0;exitY=0.5;exitDx=0;exitDy=0;entryX=1;entryY=0.5;entryDx=0;entryDy=0;" edge="1" parent="WIyWlLk6GJQsqaUBKTNV-1" source="LYepQbH3oenBu2mSsEh7-98" target="LYepQbH3oenBu2mSsEh7-18">
          <mxGeometry relative="1" as="geometry" />
        </mxCell>
      </root>
    </mxGraphModel>
  </diagram>
</mxfile>
